<svg id="irf-widget-bubble-icon" width="29" height="24" viewBox="0 0 29 24" fill="none" xmlns="http://www.w3.org/2000/svg"><path d="M26.3929 12.1497H24.9913V9.45455C24.7141 6.86022 23.4944 4.4648 21.5713 2.73797C19.6447 0.981177 17.1503 0.00666126 14.5631 0L14.2687 0C11.7356 0.0484676 9.30355 1.01998 7.41469 2.73797C5.4937 4.47065 4.27884 6.87143 4.0087 9.46881V12.1497H2.60706L0 14.7879V19.066L2.60706 21.6756H6.81199V12.1497H5.69067V9.59715C5.90758 7.44345 6.90733 5.44983 8.49396 4.00713C10.1468 2.51516 12.2834 1.69746 14.493 1.71123H14.5631C16.7389 1.7219 18.8364 2.53801 20.464 4.00713C22.0409 5.45739 23.0387 7.44698 23.2673 9.59715V12.1497H22.16V20.7059L21.4592 21.3904H20.0575C19.8991 21.0965 19.6658 20.8514 19.3822 20.6808C19.0986 20.5101 18.7751 20.4203 18.4456 20.4207C18.1292 20.4256 17.8196 20.5155 17.5484 20.6814C17.2772 20.8473 17.0539 21.0833 16.9012 21.3654C16.7486 21.6474 16.672 21.9655 16.6792 22.2874C16.6864 22.6093 16.7772 22.9236 16.9424 23.1983C17.1075 23.4729 17.3411 23.6983 17.6195 23.8514C17.8979 24.0046 18.2112 24.0801 18.5275 24.0702C18.8439 24.0604 19.152 23.9657 19.4207 23.7955C19.6894 23.6254 19.9091 23.386 20.0575 23.1016H22.146L23.5476 21.7469H26.3509L28.958 19.0945V14.8164L26.3929 12.1497ZM5.116 19.9643H3.29386L1.68197 18.3102V15.4581L3.29386 13.861H5.116V19.9643ZM27.318 18.3102L25.6921 19.9643H23.8279V13.861H25.6361L27.262 15.5009L27.318 18.3102Z" fill="#FFFFFF"></path></svg>