<svg xmlns="http://www.w3.org/2000/svg" width="200" height="75" viewBox="0 0 116.58 44.106" class="">
    <g stroke="rgba(0,0,0,0)">
        <path fill="#053F22" d="M-1096.688-26.369c-.383-.225-.762-.459-1.152-.674q-4.539-2.5-9.083-4.989a.467.467 0 0 1-.286-.486c.016-.917.006-1.834.006-2.75v-.336h4.223a.639.639 0 0 0 .521-.223q1.43-1.526 2.887-3.024a.632.632 0 0 1 .4-.163c.889-.014 1.778-.007 2.7-.007v-7.607l10.127-.461c-.036.083-.058.147-.09.2-.378.669-.764 1.335-1.135 2.01a.4.4 0 0 1-.386.229c-1.922.1-3.844.212-5.767.321-.044 0-.087.012-.146.02-.005.1-.014.19-.014.279 0 1.578 0 3.154.008 4.732a.692.692 0 0 0 .174.427q1.458 1.554 2.941 3.085a.622.622 0 0 0 .4.166c1.321.011 2.643.007 3.964.007h.333v.425c0 .909 0 1.816.005 2.724a.373.373 0 0 1-.226.383q-5.063 2.772-10.117 5.56c-.079.044-.154.1-.231.144zm-3.087-9.468a.339.339 0 0 0-.225.06c-.29.316-.566.644-.873 1 .1.041.136.061.179.077 1.3.469 2.6.944 3.9 1.4a.625.625 0 0 0 .389-.024c1.225-.435 2.446-.881 3.668-1.325.1-.036.2-.077.33-.13-.3-.345-.566-.667-.849-.976a.359.359 0 0 0-.243-.081h-3.313zm-.353-8.555c-1.656-.083-3.313-.2-4.97-.247a1.156 1.156 0 0 1-1.206-.724 20.1 20.1 0 0 0-.991-1.757l7.722.351.349 2.379c-.2 0-.4.005-.585.005-.108.001-.214-.001-.319-.007zm2.905-10.339l14.206-6.537-1.117 11.351zm-13.293-7.494c.711-.315 1.411-.627 2.113-.937q7.024-3.1 14.045-6.213a2.468 2.468 0 0 1 1.239-.056c1.473.085 2.944.2 4.416.309 1 .072 1.994.139 2.989.225.08.007.181.13.216.22q1.151 2.926 2.29 5.854c.06.153.117.308.192.5l-26.008 12.151c-.502-4.039-.996-8.035-1.492-12.053z" transform="translate(-6.196 -5.025) translate(1205.161 75)"></path>
        <path d="M-1033.65-47.631a.348.348 0 0 0-.4-.029 2.144 2.144 0 0 1-2.027-.122.921.921 0 0 1-.472-.824c-.011-.945-.016-1.89 0-2.834a1.037 1.037 0 0 1 .594-.959 2.657 2.657 0 0 1 2.311-.019 2.368 2.368 0 0 1 .367.263l-.365.13a1.473 1.473 0 0 0-1.5-.25.811.811 0 0 0-.578.823q-.03 1.43 0 2.86a.766.766 0 0 0 .639.764 2.218 2.218 0 0 0 .733.044.625.625 0 0 0 .59-.7v-1.484h-.8c-.011-.142-.113-.292.115-.3.41-.01.821 0 1.25 0v2.811a2.269 2.269 0 0 1-.457-.174zm-7.805.087q.586-1.685 1.174-3.368c.181-.52.365-1.036.542-1.557.043-.126.1-.231.245-.184.1.03.225.092.253.169.569 1.624 1.125 3.252 1.683 4.881a.371.371 0 0 1 0 .1c-.269 0-.534.009-.8-.007a.267.267 0 0 1-.186-.141c-.1-.245-.166-.505-.276-.746a.346.346 0 0 0-.249-.175c-.3-.009-.6-.009-.9-.009h-.7a.239.239 0 0 0-.269.206c-.075.245-.155.489-.254.726-.031.074-.128.12-.194.18zm1.554-3.828l-.856 2.5h1.783c-.3-.859-.583-1.686-.868-2.512zm-53.973 3.823l1.714-4.925a.242.242 0 0 1 .253-.19c.188-.009.23.1.276.235q.633 1.86 1.27 3.716l.413 1.21c-.312 0-.591.009-.868-.007-.055 0-.128-.089-.153-.152-.1-.247-.167-.5-.274-.747a.322.322 0 0 0-.231-.162c-.541-.015-1.083-.016-1.623 0a.347.347 0 0 0-.241.185c-.105.233-.165.485-.265.72-.034.079-.134.13-.205.193zm1.552-3.823l-.859 2.5h1.786c-.3-.859-.581-1.682-.865-2.5zm7.958 3.836l.619-1.778c.365-1.046.733-2.092 1.094-3.138.045-.133.094-.214.262-.212s.219.079.264.215q.818 2.4 1.641 4.808c.012.033.022.067.038.119a.5.5 0 0 1-.055.014c-.089 0-.185.008-.279.016a.978.978 0 0 1-.58-.054c-.192-.122-.242-.489-.321-.757a.327.327 0 0 0-.384-.282c-.485.02-.973.017-1.458 0a.287.287 0 0 0-.332.241 5.911 5.911 0 0 1-.232.674c-.034.079-.131.132-.2.2zm.7-1.337h1.783l-.894-2.59zm25.221 1.307a1.134 1.134 0 0 1-1.018-1.23c-.007-.413 0-.824 0-1.237v-1.154a1.267 1.267 0 0 1 1.222-1.445 4.747 4.747 0 0 1 1.417.044 1.071 1.071 0 0 1 .966 1.1c.035.9.041 1.814 0 2.719a1.213 1.213 0 0 1-1.218 1.245 4.609 4.609 0 0 1-.511.028 5.3 5.3 0 0 1-.86-.071zm-.193-3.783c-.007.431 0 .861 0 1.292 0 .468-.01.935 0 1.4a.857.857 0 0 0 .883.893.88.88 0 0 0 1.047-.772 2.628 2.628 0 0 0 .033-.411q.006-.755 0-1.511c0-.394.007-.788-.026-1.18a.757.757 0 0 0-.591-.711 1.483 1.483 0 0 0-.406-.061.943.943 0 0 0-.942 1.06zm6.822 3.837c-.082-.008-.178-.11-.228-.193-.406-.675-.8-1.355-1.2-2.034-.045-.077-.1-.149-.152-.233a.845.845 0 0 0-.4.765c.038.556.009 1.115.009 1.688h-.8v-5.125h.8v2.551c.27-.317.486-.571.7-.825.426-.5.859-1 1.272-1.517a.468.468 0 0 1 .578-.188l-1.662 2.01 1.924 3.111h-.479c-.13.002-.248.002-.364-.011zm-22.716 0v-5.124h.786v5.124zm5.392-.011v-5.138c.229.007.458 0 .686 0a5.577 5.577 0 0 1 1.742.158.9.9 0 0 1 .737.76 1.1 1.1 0 0 1-.507 1.111c-.08.053-.166.1-.274.167.183.062.339.1.485.164a1.366 1.366 0 0 1 .85 1.33 1.245 1.245 0 0 1-.844 1.233 2.761 2.761 0 0 1-.875.207c-.272.012-.543.016-.817.016-.392.001-.785-.006-1.185-.006zm.833-2.747v2.474c.315 0 .615.015.913 0a1.24 1.24 0 0 0 .987-1.864 1.478 1.478 0 0 0-1.337-.695 1.819 1.819 0 0 0-.565.086zm0-.314a7.646 7.646 0 0 0 1.035-.082c.392-.083.58-.416.576-.885a.671.671 0 0 0-.594-.736 9.049 9.049 0 0 0-1.017-.094zm18.488 3.066v-5.121h2.771l.019.274h-1.961v2.071h1.409v.3h-1.412v2.21h1.945v.267zm6.564 0v-.924-.522a.9.9 0 0 0-.923-1.008c-.328-.027-.659 0-1.02 0v2.454h-.824v-5.136c.246.007.492 0 .737 0a6.345 6.345 0 0 1 1.9.163 1.123 1.123 0 0 1 .938 1.185 1.049 1.049 0 0 1-.618.936c-.166.09-.345.154-.56.248.13.04.221.066.311.1a1.191 1.191 0 0 1 .888 1.212v1.21a.423.423 0 0 1-.026.091zm-1.944-2.733a10.326 10.326 0 0 0 1.178-.083.954.954 0 0 0 .822-1.011.937.937 0 0 0-.839-.964 9.807 9.807 0 0 0-1.161-.061zm13.231 2.732v-5.125h2.779l.017.279h-1.968v2.065h1.4v.309h-1.4v2.2h1.94l.027.27zm-32.279 0v-5.123c.586 0 1.172-.03 1.753.01a4.463 4.463 0 0 1 1.146.245 1 1 0 0 1 .68.972 1.053 1.053 0 0 1-.627 1.041c-.165.087-.343.154-.539.241.177.062.325.1.464.165a1.079 1.079 0 0 1 .7.943c.031.492.008.988.008 1.5h-.824v-1.43a.886.886 0 0 0-.877-1.015c-.344-.035-.693-.006-1.072-.006v2.453zm.819-2.728a10.587 10.587 0 0 0 1.2-.094.966.966 0 0 0 .818-.994.945.945 0 0 0-.814-.965 9.975 9.975 0 0 0-1.2-.073zm-25.515 2.727v-5.137c.244.006.487 0 .73 0a6.425 6.425 0 0 1 1.907.159 1.14 1.14 0 0 1 .909 1.47 1.181 1.181 0 0 1-.708.721c-.128.06-.261.108-.427.174.188.065.338.1.475.167a1.131 1.131 0 0 1 .715 1.078v1.367h-.815v-.779-.688a.882.882 0 0 0-.865-.977 9.876 9.876 0 0 0-1.1-.008v2.449zm.811-4.8c0 .633 0 1.272.008 1.909 0 .049.114.135.176.136a6.929 6.929 0 0 0 .93-.035 1 1 0 0 0 .915-.994.946.946 0 0 0-.855-1.006 2.91 2.91 0 0 0-.433-.028c-.241-.002-.488.016-.744.016zm-8.695 4.8v-5.121h2.781v.282h-1.947v2.069c.407 0 .806.009 1.206 0 .235-.009.264.091.195.3h-1.41v2.471zm17.4-.038V-52.7c.744.045 1.475.063 2.2.146a.973.973 0 0 1 .96.767 1.132 1.132 0 0 1-.652 1.245c-.036.021-.069.047-.138.094a1.511 1.511 0 0 1 1.175.766 1.416 1.416 0 0 1-1.274 2.11 8.463 8.463 0 0 1-.848.037c-.472 0-.946-.024-1.426-.024zm.821-.219h.685a2.636 2.636 0 0 0 .355-.034 1.183 1.183 0 0 0 1.036-1.172 1.216 1.216 0 0 0-.948-1.279 8.714 8.714 0 0 0-1.127-.072zm-.015-4.321v1.513a9.332 9.332 0 0 0 1.014-.062.805.805 0 0 0 .629-.878.676.676 0 0 0-.573-.754 9.2 9.2 0 0 0-1.057-.1c-.01.137-.016.208-.016.279zm17.365-5.389h.692a.936.936 0 0 0 .991-.871 5.067 5.067 0 0 0 .029-.685c0-1.1.008-2.2 0-3.3a.726.726 0 0 1 .228-.582c.366-.357.708-.739 1.11-1.165v3.91h10.193a.33.33 0 0 0 .033-.1c-.006-.945.01-1.889-.027-2.832a2.446 2.446 0 0 0-.614-1.5 2.053 2.053 0 0 0-1.646-.745h-1.01c-.673 0-1.345 0-2.018.006a.8.8 0 0 0-.382.115c-.624.368-1.239.749-1.859 1.124-.068.041-.139.076-.255.138 0-.384-.008-.73.007-1.073 0-.062.084-.128.141-.18.219-.2.464-.382.661-.606.482-.54.943-1.1 1.409-1.653.057-.068.1-.146.184-.263a1.408 1.408 0 0 1-.58 1.4l.059.054 3.848-2.366c-.032.437-.053.826-.1 1.211-.007.066-.113.133-.186.178-.719.442-1.44.878-2.16 1.317-.074.044-.144.1-.27.179.153.007.24.014.327.014.881 0 1.762-.012 2.643-.007a3.514 3.514 0 0 1 3.2 2.543.552.552 0 0 1 .024.108v3.509h-11.636c0 .379.029.736-.006 1.086A1.513 1.513 0 0 1-1059.62-57a15.682 15.682 0 0 1-1.638.112zm-31.731 0h.618a.945.945 0 0 0 1.043-.874 2.614 2.614 0 0 0 .033-.437c0-1.218 0-2.437.008-3.655a.666.666 0 0 1 .16-.4c.356-.4.733-.785 1.151-1.226 0 1.91.017 3.741-.006 5.573a1.532 1.532 0 0 1-1.455 1.526c-.5.076-1.019.062-1.552.089zm46.714 0h.621a.953.953 0 0 0 1.068-.968c.035-.456.021-.916.021-1.373 0-.844.007-1.687 0-2.531a.69.69 0 0 1 .217-.557c.372-.361.716-.749 1.128-1.184V-58.891a2.949 2.949 0 0 1-.109.84 1.533 1.533 0 0 1-1.4 1.073c-.5.064-1 .057-1.542.082zm-21.459.564v-.564c.16 0 .321-.009.48 0 .909.062 1.232-.486 1.231-1.24 0-1.2.006-2.4-.007-3.6a.779.779 0 0 1 .25-.627c.359-.345.692-.72 1.086-1.137v.362c0 1.576-.027 3.152.008 4.727a1.775 1.775 0 0 1-1.917 2.075c-.136.009-.273.012-.411.012-.236-.001-.474-.009-.724-.009zm-31.964-.01v-1.275h1.29v1.275zm13.209-2.734a1.567 1.567 0 0 1-1.634-1.782c-.017-1.752-.006-3.5 0-5.254a.409.409 0 0 1 .1-.267c.385-.378.784-.742 1.237-1.168v6.664a2.891 2.891 0 0 0 .016.384.956.956 0 0 0 1.011.921q1.858.018 3.717 0a.944.944 0 0 0 1-.923c-.559 0-1.115-.008-1.669 0a2.343 2.343 0 0 1-1.882-.865 2.078 2.078 0 0 1-.549-1.456c.009-.385-.019-.77-.014-1.155a2.336 2.336 0 0 1 2.2-2.432c1.076-.079 2.162-.016 3.271-.016.006.1.014.2.014.3v5.172c0 1.155-.541 1.856-1.682 1.9q-1.124.043-2.251.042-1.444.002-2.889-.066zm2.918-6.094a1.892 1.892 0 0 0-.175.488 6.009 6.009 0 0 0 0 2.428 2.781 2.781 0 0 0 .345.768.807.807 0 0 0 .7.42c.557.011 1.115 0 1.705 0v-4.791c-.542 0-1.062.009-1.583 0h-.028a1.052 1.052 0 0 0-.968.686zm44.547 6.15a5.131 5.131 0 0 1-1.2-.132 1.466 1.466 0 0 1-1.17-1.451c-.021-1.852-.012-3.7-.012-5.556a.3.3 0 0 1 .068-.2c.4-.386.808-.763 1.261-1.187v6.923a1.014 1.014 0 0 0 1.129 1.044h8.324a.482.482 0 0 0 .036-.109c-.006-.9.011-1.8-.029-2.694a2.5 2.5 0 0 0-.559-1.439 1.971 1.971 0 0 0-1.605-.82q-2.3-.007-4.6 0a.739.739 0 0 0-.354.116c-.55.325-1.094.661-1.688 1.021 0-.38-.009-.7.006-1.02a.334.334 0 0 1 .129-.236q2.758-1.708 5.525-3.4a.383.383 0 0 1 .074-.007c-.032.4-.054.793-.1 1.184-.008.065-.123.125-.2.171-.781.48-1.564.955-2.346 1.432a.587.587 0 0 0-.214.2c.5 0 1-.011 1.5 0a26.3 26.3 0 0 1 2.882.117 3.487 3.487 0 0 1 2.66 1.8 2.348 2.348 0 0 1 .314 1.009c.04 1.061.015 2.126.015 3.229h-4.846q-2.502.01-5.004.003zm-64.71.006c-1.588 0-3.175 0-4.762-.013a3.349 3.349 0 0 1-.786-.112 1.544 1.544 0 0 1-1.214-1.545c-.031-1.237-.015-2.475-.012-3.713a.3.3 0 0 1 .1-.2c.385-.308.779-.606 1.228-.952v4.628a2.846 2.846 0 0 0 .039.465.932.932 0 0 0 .961.878c1.183.02 2.367 0 3.55 0 .016 0 .032-.013.087-.038-.127-.327-.245-.66-.384-.984-.439-1.027-.909-2.04-1.318-3.079a4.152 4.152 0 0 1-.243-1.255.67.67 0 0 1 .717-.736 12.785 12.785 0 0 1 1.319.021 1.718 1.718 0 0 1 1.442 1.092c.318.648.586 1.321.876 1.983s.563 1.333.876 1.983a1.61 1.61 0 0 0 1.716 1.021 2.766 2.766 0 0 1 .365-.006h.184a1.094 1.094 0 0 0 1.251-1.2c.025-.806.012-1.614.014-2.42v-1.486a.294.294 0 0 1 .071-.212c.395-.259.8-.505 1.241-.781v4.584a1.784 1.784 0 0 1-1.789 2.036 10.361 10.361 0 0 1-2.139-.033 1.979 1.979 0 0 1-1.631-1.321c-.482-1.127-.974-2.251-1.484-3.365a9.8 9.8 0 0 0-.608-1.041.477.477 0 0 0-.214-.205c-.158-.051-.367-.127-.485-.063a.5.5 0 0 0-.184.435 6.487 6.487 0 0 0 .348 1.093c.593 1.467 1.2 2.93 1.8 4.394a1.478 1.478 0 0 1 .041.145h-.979zm9.29-.008c-.006-.09-.015-.177-.015-.263 0-2.255 0-4.51.007-6.764a.636.636 0 0 1 .168-.4c.351-.36.725-.7 1.126-1.075v8.5zm31.624-.008v-.255c0-2.256 0-4.513.008-6.77a.624.624 0 0 1 .167-.4c.353-.358.727-.692 1.136-1.075v8.5zm-11.384-.013a2.123 2.123 0 0 1-.541-.091 1.581 1.581 0 0 1-1.231-1.563c-.018-1.228-.007-2.457 0-3.686a.28.28 0 0 1 .059-.195c.4-.318.805-.626 1.26-.976V-61.312a1.056 1.056 0 0 0 1.2 1.147h3.679c-.128-.31-.235-.579-.352-.842q-.539-1.2-1.085-2.4a1.9 1.9 0 0 1 1.635-2.842c.454-.044.915-.008 1.392-.008v.5a6.761 6.761 0 0 0-.83.008 2.2 2.2 0 0 0-.781.209.864.864 0 0 0-.4 1.256q.843 1.969 1.678 3.941c.1.235.184.474.277.716h-2.4l-3.56-.008zm14.677-4.99v-1.25h1.308v1.25zm-23.033-3.585v-1.273h1.3v1.273z" transform="translate(-6.196 -5.025) translate(1117.211 87.034)" fill="#053F22"></path>
    </g>
</svg>